<?xml version="1.0" standalone="no"?>
<!DOCTYPE svg PUBLIC "-//W3C//DTD SVG 20010904//EN"
 "http://www.w3.org/TR/2001/REC-SVG-20010904/DTD/svg10.dtd">
<svg version="1.0" xmlns="http://www.w3.org/2000/svg"
 width="700.000000pt" height="700.000000pt" viewBox="0 0 700.000000 700.000000"
 preserveAspectRatio="xMidYMid meet">
<metadata>
Created by potrace 1.14, written by Peter Selinger 2001-2017
</metadata>
<g transform="translate(0.000000,700.000000) scale(0.100000,-0.100000)"
fill="#000000" stroke="none">
<path d="M3295 6664 c-446 -36 -823 -138 -1210 -329 -301 -148 -581 -350 -825
-595 -844 -843 -1142 -2083 -774 -3222 334 -1035 1198 -1837 2259 -2098 449
-110 941 -119 1403 -24 1228 252 2208 1235 2455 2464 48 240 61 368 61 635 0
243 -6 328 -40 535 -137 837 -626 1602 -1329 2082 -431 294 -887 467 -1409
534 -117 14 -489 26 -591 18z m485 -334 c771 -81 1450 -452 1941 -1062 312
-388 510 -847 590 -1369 32 -207 32 -589 1 -799 -93 -610 -355 -1145 -771
-1572 -201 -207 -357 -333 -576 -465 -489 -295 -1024 -428 -1618 -401 -577 26
-1164 248 -1623 615 -939 750 -1302 2018 -905 3165 273 788 869 1403 1660
1713 223 87 470 144 776 179 70 8 438 5 525 -4z"/>
<path d="M3241 5394 c-634 -86 -1187 -489 -1466 -1069 -246 -512 -246 -1138 0
-1650 217 -450 604 -802 1068 -969 479 -174 1004 -151 1468 62 328 151 636
429 828 747 291 482 351 1089 161 1630 -144 408 -440 767 -825 1000 -351 212
-815 306 -1234 249z m349 -717 c19 -12 43 -38 54 -57 20 -34 21 -52 24 -492
l3 -457 457 -3 c440 -3 458 -4 492 -24 55 -32 80 -77 80 -144 0 -67 -25 -112
-80 -144 -34 -20 -52 -21 -492 -24 l-457 -3 -3 -457 c-3 -440 -4 -458 -24
-492 -32 -55 -77 -80 -144 -80 -67 0 -112 25 -144 80 -20 34 -21 52 -24 492
l-3 457 -457 3 c-440 3 -458 4 -492 24 -55 32 -80 77 -80 144 0 67 25 112 80
144 34 20 52 21 492 24 l457 3 3 457 c3 440 4 458 24 492 32 55 77 80 144 80
43 0 65 -6 90 -23z"/>
</g>
</svg>
